<?xml version="1.0" encoding="UTF-8"?>
<svg version="1.1" xmlns:xlink="http://www.w3.org/1999/xlink" width="16px" height="16px" xmlns="http://www.w3.org/2000/svg">
  <g transform="matrix(1 0 0 1 -9 -13 )">
    <path d="M 2.2857142857142856 13.714285714285714  L 2.2857142857142856 10.285714285714286  L 0 10.285714285714286  L 0 16  L 5.714285714285714 16  L 5.714285714285714 13.714285714285714  L 2.2857142857142856 13.714285714285714  Z M 0 0  L 0 5.714285714285714  L 2.2857142857142856 5.714285714285714  L 2.2857142857142856 2.2857142857142856  L 5.714285714285714 2.2857142857142856  L 5.714285714285714 0  L 0 0  Z M 13.714285714285714 10.285714285714286  L 13.714285714285714 13.714285714285714  L 10.285714285714286 13.714285714285714  L 10.285714285714286 16  L 16 16  L 16 10.285714285714286  L 13.714285714285714 10.285714285714286  Z M 16 0  L 10.285714285714286 0  L 10.285714285714286 2.2857142857142856  L 13.714285714285714 2.2857142857142856  L 13.714285714285714 5.714285714285714  L 16 5.714285714285714  L 16 0  Z " fill-rule="nonzero" fill="#333333" stroke="none" transform="matrix(1 0 0 1 9 13 )"/>
  </g>
</svg>