<?xml version="1.0" encoding="UTF-8" standalone="no"?> <svg id="Layer_1" data-name="Layer 1" xmlns="http://www.w3.org/2000/svg" viewBox="0 0 24 24"><title>Copy Link</title><path d="M12,0A12,12,0,1,0,24,12,12,12,0,0,0,12,0Zm0,22A10,10,0,1,1,22,12,10,10,0,0,1,12,22Z"/><path d="M19.36,8.68,18.23,6.86a1.93,1.93,0,0,0-2.66-.61L12.9,7.91a1.93,1.93,0,0,0-.62,2.65l0,.06-1.7,1.06,0-.06A1.93,1.93,0,0,0,7.93,11L5.26,12.66a1.94,1.94,0,0,0-.62,2.66l1.13,1.82a2,2,0,0,0,1.64.91,1.92,1.92,0,0,0,1-.3l2.67-1.66a1.93,1.93,0,0,0,.62-2.65l0-.06,1.7-1.06,0,.06a1.92,1.92,0,0,0,2.65.62l2.67-1.66A1.94,1.94,0,0,0,19.36,8.68ZM7.43,16l-1-1.7,2.54-1.58L10,14.43Zm7.65-4.76L14,9.57,16.57,8l1.05,1.7Z"/></svg>