<?xml version="1.0" encoding="iso-8859-1"?>
<!-- Generator: Adobe Illustrator 18.0.0, SVG Export Plug-In . SVG Version: 6.00 Build 0)  -->
<!DOCTYPE svg PUBLIC "-//W3C//DTD SVG 1.1//EN" "http://www.w3.org/Graphics/SVG/1.1/DTD/svg11.dtd">
<svg version="1.1" id="Capa_1" xmlns="http://www.w3.org/2000/svg" xmlns:xlink="http://www.w3.org/1999/xlink" x="0px" y="0px"
	 viewBox="0 0 297 297" style="enable-background:new 0 0 297 297;" xml:space="preserve">
<path d="M212.558,240.674c4.061-13.175,17.306-61.74,17.306-78.623v-8.64h37.298l-8.783,11.402
	c-3.315,4.305-2.515,10.483,1.79,13.799c1.789,1.379,3.901,2.046,5.998,2.046c2.948-0.001,5.863-1.32,7.802-3.836l20.987-27.246
	c2.727-3.539,2.727-8.47,0-12.009l-20.987-27.247c-3.316-4.305-9.494-5.104-13.8-1.79c-4.305,3.316-5.105,9.495-1.79,13.8
	l8.783,11.402h-37.298v-21.575c0-7.933-6.36-14.387-14.181-14.387c-7.816,0-14.177,6.454-14.177,14.387v15.881
	c0,1.54-1.254,2.794-2.794,2.794c-1.54,0-2.793-1.254-2.793-2.794V85.365c0-7.931-6.361-14.383-14.18-14.383
	c-7.816,0-14.175,6.452-14.175,14.383v31.336c0,1.54-1.254,2.794-2.794,2.794c-1.54,0-2.793-1.254-2.793-2.794V70.708
	c0-7.93-6.361-14.382-14.18-14.382c-7.816,0-14.177,6.452-14.177,14.382v34.66c0,1.541-1.254,2.795-2.794,2.795
	c-1.541,0-2.794-1.254-2.794-2.795V82.845c0-7.933-6.362-14.386-14.185-14.386c-7.817,0-14.178,6.453-14.178,14.386v67.011
	c0,1.541-1.253,2.795-2.794,2.795c-1.54,0-2.794-1.254-2.794-2.795V114.23l-7.529,0.705c-0.076,0.008-0.151,0.015-0.229,0.015
	c-10.788,0-11.748,9.834-11.833,18.783H29.839l8.783-11.402c3.315-4.305,2.515-10.483-1.79-13.8
	c-4.305-3.316-10.482-2.515-13.8,1.79L2.044,137.568c-2.726,3.539-2.726,8.47,0,12.009l20.988,27.246
	c1.938,2.517,4.854,3.836,7.802,3.836c2.097,0,4.209-0.668,5.998-2.046c4.305-3.315,5.105-9.494,1.79-13.799l-8.783-11.402h44.889
	c0.701,17.626,3.43,38.152,14.057,57.92c3.258,6.067,11.774,24.697,14.307,29.343H212.558z"/>
<g>
</g>
<g>
</g>
<g>
</g>
<g>
</g>
<g>
</g>
<g>
</g>
<g>
</g>
<g>
</g>
<g>
</g>
<g>
</g>
<g>
</g>
<g>
</g>
<g>
</g>
<g>
</g>
<g>
</g>
</svg>
