<?xml version="1.0" encoding="iso-8859-1"?>
<!-- Generator: Adobe Illustrator 18.0.0, SVG Export Plug-In . SVG Version: 6.00 Build 0)  -->
<!DOCTYPE svg PUBLIC "-//W3C//DTD SVG 1.1//EN" "http://www.w3.org/Graphics/SVG/1.1/DTD/svg11.dtd">
<svg version="1.1" id="Capa_1" xmlns="http://www.w3.org/2000/svg" xmlns:xlink="http://www.w3.org/1999/xlink" x="0px" y="0px"
	 viewBox="0 0 297 297" style="enable-background:new 0 0 297 297;" xml:space="preserve">
<path d="M294.955,136.684l-20.987-27.246c-3.316-4.307-9.494-5.104-13.8-1.791c-4.305,3.316-5.105,9.496-1.79,13.801l8.783,11.402
	h-21.252c-0.699,0-1.38,0.074-2.038,0.213v-21.799c0-15.053-12.153-27.299-27.091-27.299c-2.568,0-5.053,0.369-7.408,1.047v-0.979
	c0-15.051-12.152-27.295-27.09-27.295c-3.361,0-6.578,0.623-9.55,1.756c-4.125-9.779-13.753-16.654-24.946-16.654
	c-10.351,0-19.359,5.885-23.918,14.502c-3.254-1.395-6.831-2.17-10.585-2.17c-14.937,0-27.089,12.248-27.089,27.301v19.996
	c-0.292-0.027-0.586-0.045-0.885-0.045c-10.678,0-18.569,5.336-22.223,15.024c-2.059,5.463-2.415,11.447-2.477,16.402H29.839
	l8.783-11.402c3.315-4.305,2.515-10.484-1.79-13.801s-10.482-2.514-13.8,1.791L2.044,136.684c-2.726,3.539-2.726,8.471,0,12.01
	l20.988,27.246c1.938,2.516,4.854,3.836,7.802,3.836c2.097,0,4.209-0.668,5.998-2.047c4.305-3.314,5.105-9.494,1.79-13.799
	l-8.783-11.402h30.982c0.702,19.205,3.627,42.852,15.82,65.533c4.184,7.791,17.242,31.731,17.374,31.973
	c1.724,3.16,5.037,5.127,8.638,5.127h111.484c4.275,0,8.061-2.762,9.367-6.83c2.086-6.488,20.366-64.041,20.366-86.357v-9.66
	c0.658,0.141,1.339,0.215,2.038,0.215h21.252l-8.783,11.402c-3.315,4.305-2.515,10.484,1.79,13.799
	c1.789,1.379,3.901,2.047,5.998,2.047c2.948-0.002,5.863-1.32,7.802-3.836l20.987-27.246
	C297.682,145.154,297.682,140.223,294.955,136.684z M209.372,111.264c0-4.203,3.323-7.621,7.408-7.621
	c4.087,0,7.412,3.418,7.412,7.621v50.709c0,14.441-11.012,53.174-17.277,73.508h-98.42c-4.096-7.514-11.56-21.223-14.52-26.734
	c-13.701-25.486-13.701-52.904-13.701-72.924c0-14.721,2.112-14.721,5.035-14.721c0.299,0,0.593-0.018,0.885-0.045v28.521
	c0,5.434,4.405,9.84,9.84,9.84c5.434,0,9.839-4.406,9.839-9.84V81.473c0-4.133,3.394-7.621,7.41-7.621
	c4.09,0,7.416,3.418,7.416,7.621v22.891c0,5.434,4.405,9.84,9.839,9.84c5.434,0,9.84-4.406,9.84-9.84V69.137
	c0-4.201,3.323-7.617,7.408-7.617c4.086,0,7.411,3.416,7.411,7.617v46.744c0,5.434,4.405,9.84,9.839,9.84
	c5.434,0,9.84-4.406,9.84-9.84V84.033c0-4.129,3.392-7.617,7.406-7.617c4.087,0,7.411,3.418,7.411,7.617v43.371
	c0,5.434,4.405,9.84,9.839,9.84s9.84-4.406,9.84-9.84V111.264z"/>
<g>
</g>
<g>
</g>
<g>
</g>
<g>
</g>
<g>
</g>
<g>
</g>
<g>
</g>
<g>
</g>
<g>
</g>
<g>
</g>
<g>
</g>
<g>
</g>
<g>
</g>
<g>
</g>
<g>
</g>
</svg>
